<?xml version="1.0" standalone="no"?>
<!DOCTYPE svg PUBLIC "-//W3C//DTD SVG 20010904//EN"
 "http://www.w3.org/TR/2001/REC-SVG-20010904/DTD/svg10.dtd">
<svg version="1.0" xmlns="http://www.w3.org/2000/svg"
 width="208.000000pt" height="68.000000pt" viewBox="0 0 208.000000 68.000000"
 preserveAspectRatio="xMidYMid meet">

<g transform="translate(0.000000,68.000000) scale(0.100000,-0.100000)"
fill="#000000" stroke="none">
<path d="M1257 666 c-105 -29 -177 -109 -177 -199 0 -82 27 -117 147 -186 88
-50 103 -80 59 -118 -22 -19 -38 -23 -89 -23 -34 1 -80 7 -102 15 -57 21 -62
19 -68 -22 -4 -21 -9 -52 -13 -69 -6 -30 -4 -31 43 -45 27 -8 90 -14 143 -14
77 1 104 5 145 23 91 42 135 104 135 192 0 83 -38 133 -142 186 -86 44 -106
76 -68 114 16 16 33 20 83 20 34 -1 78 -7 99 -14 l36 -13 12 63 c7 34 9 67 6
73 -9 13 -98 31 -154 30 -26 0 -69 -6 -95 -13z"/>
<path d="M5 661 c-3 -5 21 -17 52 -26 60 -18 128 -49 137 -63 3 -5 32 -116 66
-248 34 -131 66 -256 71 -276 l10 -38 88 0 88 0 121 293 c66 160 128 309 136
330 l16 37 -87 0 -88 0 -69 -177 c-38 -98 -78 -198 -89 -223 l-20 -45 -37 199
c-49 259 -35 246 -240 246 -82 0 -151 -4 -155 -9z"/>
<path d="M801 373 c-34 -164 -66 -313 -71 -330 l-8 -33 84 0 c79 0 84 1 89 22
3 13 32 151 65 308 33 157 62 295 65 308 5 21 3 22 -78 22 l-84 0 -62 -297z"/>
<path d="M1757 648 c-21 -19 -155 -325 -274 -626 -4 -10 14 -12 83 -10 l88 3
17 45 17 45 110 3 110 3 7 -51 7 -50 79 0 c43 0 79 1 79 3 -1 1 -31 148 -69
327 l-67 325 -81 3 c-73 2 -84 0 -106 -20z m96 -286 c13 -62 21 -114 19 -117
-9 -9 -132 -5 -132 4 0 5 11 40 25 77 14 38 33 88 41 112 9 24 18 42 20 40 2
-2 14 -54 27 -116z"/>
</g>
</svg>
